<svg xmlns="http://www.w3.org/2000/svg" xmlns:xlink="http://www.w3.org/1999/xlink" width="1125" height="2436" viewBox="0 0 1125 2436">
  <defs>
    <clipPath id="clip-path">
      <rect id="screen_color" data-name="screen color" width="1125" height="2436" fill="#fbfbfb"/>
    </clipPath>
    <linearGradient id="linear-gradient" x1="0.5" y1="1" x2="0.5" gradientUnits="objectBoundingBox">
      <stop offset="0" stop-color="#0d0e10"/>
      <stop offset="0.51" stop-color="#151618"/>
      <stop offset="1" stop-color="#1c1d1f"/>
    </linearGradient>
  </defs>
  <g id="Bg" style="mix-blend-mode: multiply;isolation: isolate">
    <g id="screen_color-2" data-name="screen color">
      <rect id="screen_color-3" data-name="screen color" width="1125" height="2436" fill="#fbfbfb"/>
    </g>
    <rect id="screen_color-4" data-name="screen color" width="1125" height="2436" opacity="0.699" fill="url(#linear-gradient)" style="mix-blend-mode: multiply;isolation: isolate"/>
    <path id="shape" d="M927.639,84.765a2.525,2.525,0,0,1-2.5-2.534V53.847a2.526,2.526,0,0,1,2.5-2.534H932.1a2.526,2.526,0,0,1,2.5,2.534V82.23a2.525,2.525,0,0,1-2.5,2.534Zm-13.963,0a2.525,2.525,0,0,1-2.5-2.534V60.944a2.525,2.525,0,0,1,2.5-2.534h4.459a2.525,2.525,0,0,1,2.5,2.534V82.23a2.525,2.525,0,0,1-2.5,2.534Zm-13.963,0a2.525,2.525,0,0,1-2.5-2.534V68.039a2.525,2.525,0,0,1,2.5-2.534h4.46a2.525,2.525,0,0,1,2.5,2.534V82.23a2.525,2.525,0,0,1-2.5,2.534Zm-14.213,0A2.525,2.525,0,0,1,883,82.23V74.121a2.525,2.525,0,0,1,2.5-2.534h4.459a2.525,2.525,0,0,1,2.5,2.534V82.23a2.525,2.525,0,0,1-2.5,2.534Zm134.354-.021a8.863,8.863,0,0,1-2.659-.407,9.052,9.052,0,0,1-6.282-8.654V59.148A9.05,9.05,0,0,1,1017.2,50.5a8.835,8.835,0,0,1,2.659-.408h48.265a8.825,8.825,0,0,1,2.658.408,9.05,9.05,0,0,1,6.282,8.653V75.684a9.052,9.052,0,0,1-6.282,8.654,8.853,8.853,0,0,1-2.658.407Zm-5.939-25.6V75.684a5.986,5.986,0,0,0,5.939,6.019h48.265a5.987,5.987,0,0,0,5.939-6.019V59.148a5.986,5.986,0,0,0-5.939-6.018h-48.265A5.985,5.985,0,0,0,1013.916,59.148ZM972,83.068l-4.884-4.95a1.688,1.688,0,0,1,.237-2.567,10.235,10.235,0,0,1,11.623,0,1.688,1.688,0,0,1,.238,2.567l-4.884,4.95a1.631,1.631,0,0,1-2.328,0Zm47.856-4.406a2.962,2.962,0,0,1-2.938-2.978V59.148a2.962,2.962,0,0,1,2.938-2.978h48.265a2.961,2.961,0,0,1,2.938,2.978V75.684a2.961,2.961,0,0,1-2.938,2.978Zm59.674-16.79a5.544,5.544,0,0,1,0,11.087ZM982.922,72.223a15.188,15.188,0,0,0-19.516,0,1.622,1.622,0,0,1-2.206-.1l-2.368-2.4a1.691,1.691,0,0,1,.093-2.456,21.753,21.753,0,0,1,28.5-.026,1.691,1.691,0,0,1,.094,2.458l-2.392,2.425a1.617,1.617,0,0,1-1.154.485A1.639,1.639,0,0,1,982.922,72.223Zm-29.968-8.456-2.6-2.634a1.7,1.7,0,0,1,.07-2.434,33.615,33.615,0,0,1,45.526-.052,1.694,1.694,0,0,1,.073,2.434l-2.624,2.66a1.617,1.617,0,0,1-2.238.078,26.7,26.7,0,0,0-35.969.023,1.587,1.587,0,0,1-1.072.414A1.64,1.64,0,0,1,952.953,63.767Z" fill="#fff"/>
    <path id="shape-2" data-name="shape" d="M97.408,75.475h5.79s1.6,4.164,5.6,4.164,7.448-3.407,7.448-10.885C114.244,73.172,97,78.283,97,62.381c0-6.026,3.473-11.485,11.8-11.485s13.175,6.311,13.175,16.187-3.662,17.795-13.3,17.795S97.846,77.746,97.408,75.475ZM103.073,62.1c0,3.881,2.5,6.4,5.852,6.4a6.355,6.355,0,0,0,6.447-6.626c0-4.164-3.912-6.121-6.353-6.121A6.08,6.08,0,0,0,103.073,62.1Zm74.042,21.647V57.459l-8.042,5.932V57.775l8.074-6.374H183V83.744Zm-21.687,0V78.03h-15.96V72.446L152.956,51.4h7.636V73.14h4.693v4.89H160.56v5.711ZM144.944,73.2h10.421V56.67ZM126.89,76.75a3.96,3.96,0,1,1,3.96,3.929A3.945,3.945,0,0,1,126.89,76.75Zm0-16.12a3.96,3.96,0,1,1,3.96,3.929A3.945,3.945,0,0,1,126.89,60.63Z" fill="#fff"/>
    <rect id="Sep" width="260" height="10" rx="5" transform="translate(433 2396)" fill="#fff"/>
  </g>
</svg>
